<?xml version="1.0" encoding="UTF-8"?>
<svg version="1.1" viewBox="0 0 1600 826" width="695" height="359" xmlns="http://www.w3.org/2000/svg">
    <path transform="translate(440,187)" d="m0 0h20l53 1 19 3 18 6 12 7 12 9 5 5 8 9 11 15 10 21 4 13 1 8v30l-3 15-9 25-3 10h72v-114l1-56 2-6h106l27 3 28 7 17 7 19 10 10 7 11 8 11 9 13 13 10 11 9 11 7 11 7 10 11 22 9 30 4 15 1 1 5-21 10-29 12-23 14-19 7-9 11-13 8-7 14-12 15-10 18-10 21-10 30-8 23-4 11-1h23l18 2 20 4 22 6 18 8 16 8 14 9 14 11 11 12-2 5-12 13-14 15-12 13h-2l-2 4-2 2-5-1-8-9-18-12-12-5-24-8-14-3h-32l-19 4-24 8-11 6-12 8-10 8-8 8-11 14-9 13-9 19-5 15h124l5 5 9 10 11 12 7 7 2 6-4 6-18 20-7 7-5 3-4 1-17 1-103 1 4 13 12 23 9 12 7 9 13 13 13 10 14 8 14 6 15 3 10 1h35l20-3 18-6 17-9 13-11 6-5 4-5 4 1 12 13 14 15 12 12 9 12-2 5-8 8-13 9-20 12-21 10-27 9-23 5-18 2h-29l-19-2-27-7-19-7-21-10-18-11-9-7-13-11-12-12-9-11-11-15-8-14-7-12-6-15-9-27-4-16-1-1-6 25-9 27-10 21-13 19-8 10-12 14-13 12-16 12-17 11-23 11-21 7-20 5-19 3-12 1-49 1h-39l-12-1-2-1-1-142v-31h-72l6 20 7 21 1 6v31l-4 17-9 21-7 12-10 13-9 9-14 10-21 9-11 3-6 1-16 1h-119l-22-1-17-4-18-8-11-9-9-10-8-14-7-16-1-4v-8l16-1 188-1 10-3 13-9 7-10 4-8 2-9v-11l-3-13-7-13-9-10-10-6-8-3-6-1-19-1h-168l-7-1-6-5-7-8-23-23 2-4 20-20 5-6 5-5 6-5 3-1h147l42-1 9-2 9-5 11-9 10-18 3-8 1-5v-9l-2-11-4-9-7-11-8-7-8-5-11-3-14-1-87-1h-93l-6-2-1-5 6-16 9-15 14-15 11-8 17-7 9-2 9-1zm306 73-1 1v103l16 1 14 15 15 15 6 7-1 4-12 11-8 7-12 12-10 4-9 2 1 101h25l25-4 15-5 19-10 16-12 15-15 7-8 7-10 9-16 7-18 6-22 1-14v-20l-2-16-3-14-8-22-10-17-6-8-11-13-7-7-10-8-10-7-16-7-21-7-16-3z" fill="#FFFFFF"/>
    <path transform="translate(765,49)" d="m0 0h69l50 2 44 3 64 5 38 5 61 10 54 11 59 15 41 12 22 8 20 7 30 12 29 13 26 13 18 10 27 16 15 10 17 12 18 14 13 11 15 14 10 11 9 11 11 14 14 21 13 25 9 27 4 20 1 12v26l-4 26-7 23-8 18-9 17-8 12-10 13-11 13-14 15-18 18-11 9-16 13-17 12-17 11-15 9-22 12-25 13-26 12-35 14-38 13-40 12-26 7-19 5-46 11-76 14-59 8-35 4-45 3-75 3h-75l-76-3-48-4-41-5-50-7-43-8-30-5-66-16-53-15-23-7-28-10-12-4-26-11-28-13-17-9-14-7-14-8-19-12-19-13-19-14-11-10-8-7-7-7-2-1v-2h-2l-7-8-9-10-11-14-13-18-8-14-10-21-10-30-3-18-1-10v-28l3-22 5-16 9-23 10-18 12-18 8-11 9-11 15-16 11-11 8-7 16-13 11-8 14-10 17-11 18-11 24-13 23-12 24-11 26-11 39-15 16-5 27-9 37-11 27-6 28-7 36-7 24-5 47-7 43-6 106-8zm13 22-49 1-36 2-77 7-31 4-49 8-28 5-35 8-21 5-28 8-29 9-30 10-15 6-18 6-28 12-30 14-20 10-28 16-29 19-14 10-13 10-13 12-12 11-16 16-7 8-10 13-10 16-12 23-6 15-5 21-2 15v29l3 19 5 20 11 26 9 16 6 10 8 10 7 9 9 9 7 8 12 12 8 7 13 11 13 10 12 8 11 8 15 9 17 10 14 8 23 11 29 13 35 14 32 12 30 9 31 9 33 7 39 8 20 4 59 8 35 5 44 3 56 3 26 1h85l49-2 67-4 37-4 39-6 33-4 36-7 58-12 27-7 40-12 43-15 16-7 24-10 24-11 20-10 27-16 9-6 22-15 16-12 10-9 12-11 8-7 7-8 7-7 7-8 11-14 7-10 11-19 10-24 5-15 4-22 1-9v-27l-4-25-4-14-9-21-8-14-7-11-11-14-9-10-11-12-9-9-8-7-15-14-19-14-23-15-15-10-22-13-23-12-28-13-31-13-17-6-21-8-46-14-25-7-43-10-31-7-42-6-32-5-61-6-23-2-35-2-28-1-58-1z" fill="#BDD1D1"/>
    <path transform="translate(765,49)" d="m0 0h69l50 2 44 3 24 2-4 2 7 3 5 1v2h-10l-13-4-9-1 9 3 3 4-2 4-2 2 18 2v1l-10 1-1 1-38-2-44-2-58-1h-25l-49 1-36 2-77 7-31 4-49 8-28 5-35 8-21 5-28 8-29 9-30 10-15 6-18 6-28 12-30 14-20 10-28 16-29 19-14 10-13 10-13 12-12 11-15 15-7 8-10 13-10 16-12 23-6 15-5 21-2 15v29l3 19 5 20 11 26 9 16 6 10 8 10 7 9 9 9 7 8 11 11 8 7 13 11 13 10 12 8 11 8 15 9 17 10 14 8 23 11 29 13 35 14 32 12 30 9 31 9 33 7 39 8 20 4 59 8 35 5 44 3 38 2 11 1v1l-9 1-46-1h-33l-11 3-3 1 1 4 30 5 39 4 1 2h-16l-44-4-59-8-27-4-38-7-30-5-66-16-53-15-23-7-28-10-12-4-26-11-28-13-17-9-14-7-14-8-19-12-19-13-19-14-11-10-8-7-7-7-2-1v-2h-2l-7-8-9-10-11-14-13-18-8-14-10-21-10-30-3-18-1-10v-28l3-22 5-16 9-23 10-18 12-18 8-11 9-11 15-16 11-11 8-7 16-13 11-8 14-10 17-11 18-11 24-13 23-12 24-11 26-11 39-15 16-5 27-9 37-11 27-6 28-7 36-7 24-5 47-7 43-6 106-8z" fill="#FFFFFF"/>
    <path transform="translate(744,451)" d="m0 0h1v92l25-1 25-4 15-5 19-10 16-12 14-14 7-8 4-5 3-1 6-7 7-11 5-7 8-4 5 1v2h2l1 2 5 1 18 3 8-1 15-7h3l1 8-2 22-3 9h2l-2 6-7 13-11 16-8 10-12 14-13 12-16 12-17 11-23 11-21 7-20 5-19 3-12 1-49 1h-39l-12-1-2-1v-110l1-3 3-34 3-4 6-2 11 1h41v2h2l4 11 1 5z" fill="#FFFFFF"/>
    <path transform="translate(566,458)" d="m0 0 9 1 12-1 6 2v2l4 2 3 4v2h2l5 11 3 11 2-4v31l-4 17-9 21-7 12-10 13-9 9-14 10-21 9-11 3-6 1-16 1h-119l-22-1-17-4-18-8-11-9-9-10-8-14-7-16-1-4v-8l16-1 188-1 10-3 13-9 7-10 4-8 4-16v-10l-2-8v-9l4-6z" fill="#FFFFFF"/>
    <path transform="translate(1036,448)" d="m0 0 6 1 5 4 9 13 6 8 2-1 6 10 12 16 14 14 13 10 14 8 14 6 15 3 10 1h35l20-3 18-6 17-9 13-11 6-5 4-5 4 1 12 13 14 15 12 12 9 12-2 5-8 8-13 9-20 12-21 10-27 9-23 5-18 2h-29l-19-2-27-7-19-7-21-10-18-11-9-7-13-11-12-12-9-11-11-15-8-14-7-12-6-15-5-15h3v-6l3-5 3-3 6 1h13l2-1 24-3z" fill="#0FA8E8"/>
    <path transform="translate(145,553)" d="m0 0 6 2 12 11 11 9 10 8 13 9 14 10 15 9 17 10 14 8 23 11 29 13 35 14 32 12 30 9 31 9 33 7 39 8 20 4 59 8 35 5 44 3 38 2 11 1v1l-9 1-46-1h-33l-11 3-3 1 1 4 30 5 39 4 1 2h-16l-44-4-59-8-27-4-38-7-30-5-66-16-53-15-23-7-28-10-12-4-26-11-28-13-17-9-14-7-14-8-19-12-19-13-19-14-11-10-8-7-3-3v-3h2v2h2l1 2 3 1 4 5 7 5v2l4 1 5 3 8 6 3 1v2l5 1 12 6 4-1 5-1 1-2h7l-4-6-1-4-4-4-2-4-12-9-15-15z" fill="#FFFFFF"/>
    <path transform="translate(1173,692)" d="m0 0 6 1h19l11 3 2 4-6 4-3 1 1 2-28 8-56 13-71 13-59 8-35 4-45 3-75 3h-75l-76-3 1-2-39-4-19-3-11-2-1-5 7-3 8-2h32l46 1 16-1 26 1h85l49-2 67-4 37-4 39-6 33-4 36-7 58-12z" fill="#0FA7E7"/>
    <path transform="translate(440,187)" d="m0 0h20l53 1 19 3 18 6 12 7 12 9 5 5 8 9 11 15 10 21 4 13v8l-3-1-4-8-14-14-10-4-20-10-12-7-6-3-10-2-3-1-23-3h-68l-15-1h-34l-35-1-19 2-19 3-11 5-5 5-2 1-3-1 1-6 8-14 12-14 10-9 16-8 15-4 9-1z" fill="#FFFFFF"/>
    <path transform="translate(1172,187)" d="m0 0h23l18 2 20 4 22 6 18 8 16 8 14 9 14 11 11 12-2 5-12 13-6 7h-6v-8l1-2h-2v-2l-5-2-4-3-10-5-23-8-10-3-25-4-19-1-10-1h-38l-27 2-13 2-28 8-17 7-10 5-8 3-11 7-10 4-7 3-4 1-1 3-8 7-2 3h-2l-1 3-3 3-5 1v-5l14-19 7-9 11-13 8-7 14-12 15-10 18-10 21-10 30-8 23-4z" fill="#FFFFFF"/>
    <path transform="translate(673,188)" d="m0 0h106l27 3 28 7 17 7 19 10 10 7 11 8 11 9 13 13 10 11 9 11 7 11 7 10v4l-7-2v-2l-5-2-7-8-13-10-18-9-10-6-7-3-6-3-2-2-14-4-12-4-13-4-18-5-19-2h-20l-6-1-28-1-12 1h-29l-16 3-6 5-4 7-2 9-1 15h-1l-1-11v-66z" fill="#FFFFFF"/>
    <path transform="translate(765,49)" d="m0 0h69l50 2 44 3 24 2-4 2 7 3 5 1v2h-10l-13-4-9-1 9 3 3 4-2 4-2 2 18 2v1l-10 1-1 1-38-2-44-2-58-1h-25l-49 1-36 2-77 7-31 4-73 12v-2l-23 5-22 3-3-3 1-4 1-3h2l1-3 10-5 16-4 10-2 9-3-1-2 23-4 66-10 28-3 94-7z" fill="#0EA8E8"/>
    <path transform="translate(508,76)" d="m0 0h8l-4 3-9 2-24 6-10 5-1 2h-2l-1 9 17-2 16-3 10-2h4v2l-39 9-21 5-28 8-29 9-30 10-15 6-18 6-28 12-30 14-20 10-28 16-29 19-14 10-13 10-11 10-5-1 3-10 2-4-2-7-4-5-4-2-9 2 4-6 15-11 20-13 18-11 24-13 23-12 24-11 26-11 39-15 16-5 27-9 37-11 27-6 28-7 36-7z" fill="#028B8E"/>
    <path transform="translate(898,454)" d="m0 0 6 1v2h2l1 2 5 1 18 3 8-1 15-7h3l1 8-2 22-3 9h2l-2 6-7 13-11 16-5 6-1-2 3-5-1-1-4 2v2l-6 5-3 5-2 2-9 1-4-2-15 1-9 1-21-3-17-2-11-1h-10l-26 6-4-2-3-2 19-5 21-10 18-13 15-15 7-8 4-5 3-1 6-7 7-11 5-7z" fill="#4775D3"/>
    <path transform="translate(1080,573)" d="m0 0h29l32 3 18 2h37l17-1h17l7-1h33l15-2 6 2v4h-3l-2 4-7 5v2l-17 8-27 9-23 5-18 2h-29l-19-2-27-7-9-4-4-3-13-5-17-9-6-5 1-4 3-2z" fill="#07C9F2"/>
    <path transform="translate(566,458)" d="m0 0 9 1 12-1 6 2v2l4 2 3 4v2h2l5 11 3 11 2-4v31l-4 16-5-1-1 5-3 6-4-2-21-3-7-2h-27l-9-3-8-1-11 4-2-1 6-4h2l2-6 7-10 4-8 4-16v-10l-2-8v-9l4-6z" fill="#4775D3"/>
    <path transform="translate(1036,448)" d="m0 0 6 1 5 4 9 13 6 8 2-1 6 10 12 16 14 14 13 10 2 1v2h-5l-14-7-9-3h-3l-2 5-5 3-5 2h-31l-11 2-5 2 4 10v3l-4-2-9-12-10-15-9-17-6-13-6-18h3v-6l3-5 3-3 6 1h13l2-1 24-3z" fill="#4775D3"/>
    <path transform="translate(744,451)" d="m0 0h1v55l-1 36-16 1h-24l-1-1h-9l-7 1-3-1-7 1-2-8-2-1-1 12h-1v-42l1-3 3-34 3-4 6-2 11 1h41v2h2l4 11 1 5z" fill="#4775D3"/>
    <path transform="translate(348,587)" d="m0 0 31 1 27 2 26 1 29-1 48-1 25 2 16 1 5 2 1 2-5 5-15 7-5 1v2h-4v2l-6 1-16 1h-119l-22-1-17-4-18-8-4-3-1-9 1-1z" fill="#07C9F2"/>
    <path transform="translate(424,694)" d="m0 0 17 4 59 12 29 6 59 8 35 5 44 3 38 2 11 1v1l-9 1-46-1h-33l-11 3-3 1 1 4 30 5 39 4 1 2h-16l-44-4-59-8-27-4-38-7-30-5-41-10-3-3-16-6-19-5 1-4 4-1 16-1 9-1h2z" fill="#0666BA"/>
    <path transform="translate(141,221)" d="m0 0 2 1-2 2 11-2 6 8 2 7-5 13h2l1 3-13 12-15 15-7 8-10 13-10 16-12 23-6 15-5 21-3 25-2 2-2-1v-12l3-16v-8l3-7 3-12-1-4 1-7 1-6v-6l4-10 2-1-1-6 4-2 1-10 2-3-3-3 2-2-5-1-7 1-2-1v-2l3-3 2-3h2v-7l15-16 11-11 8-7 16-13z" fill="#0370AE"/>
    <path transform="translate(868,502)" d="m0 0 17 3h44l7 2 2 7-6 11-4 4h-2v2l-6 5-3 5-2 2-9 1-4-2-15 1-9 1-21-3-17-2-11-1h-10l-26 6-4-2-3-2 19-5 21-10 8-6 2 1 3-1 14-9 6-2v-2z" fill="#2C92E2"/>
    <path transform="translate(948,57)" d="m0 0h17l36 3 35 5v2l18 4 14 3 13 2 12 3 11 4 16 3 10 3 2 1-1 4h-3l1 3h-20l-14-3-13-1-3-1v2l-19-2-52-8-61-6-4-2 4-2-11-1-1-2 4-3-2-5-10-4 2-1 16 3 6 2 9 1v-2l-8-1-5-2z" fill="#0394A5"/>
    <path transform="translate(1172,187)" d="m0 0h23l18 2 20 4 22 6 18 8 16 8 14 9 8 7v3l-9-2-16-6-10-5-17-6-20-6-20-3-32-3-31-1-34 5-13 3-7 3-11 4-10 4h-2v2l-19 9-5 3-3-1 6-7 25-15 25-12 30-8 23-4z" fill="#FFFFFF"/>
    <path transform="translate(1056,487)" d="m0 0h8l8 6 8 8v2h2v2l5 2 4 1 5 5 13 10 2 1v2h-5l-14-7-9-3h-3l-2 5-5 3-5 2h-31l-11 2-5 2 4 10v3l-4-2-9-12-10-15 1-4v-7l2-3h2v-2l10-3 3-2 22-2z" fill="#2C92E3"/>
    <path transform="translate(563,502)" d="m0 0 16 1 23 2 4 4 1 2v23h-4l-1 5-3 6-4-2-21-3-7-2h-27l-9-3-8-1-11 4-2-1 6-4h2l2-6 5-7 4-2 8-11 5-3z" fill="#2D91E2"/>
    <path transform="translate(673,188)" d="m0 0h106l27 3 28 7 17 7 19 10 10 7 11 8 11 9 1 4-6-2-4-3-4-1v-2l-6-2-18-9v-2l-5-1-29-10-22-5-11-2-20-2-29-3-24-1-22 1-13 2-12 6h-2l-2 4h-2v-22z" fill="#FFFFFF"/>
    <path transform="translate(713,592)" d="m0 0h20 3l8 1h48l20 1 17 2 2 1-1 3-21 7-17 4-8 1-70 2-38-1-2-5 2-9 6-5h31z" fill="#07CAF3"/>
    <path transform="translate(440,187)" d="m0 0h20l53 1 19 3 18 6 12 7 12 9 5 5 8 9v3l-5-1-3-3-6-3v-2l-5-1-17-7-41-11-20-4-13-2-14-1h-42l-19-1-34 2-12 2-8 3-4 1-17 7-5 2v2h-3l-1 2-4 1 6-7 7-8 16-8 15-4 9-1z" fill="#FFFFFF"/>
    <path transform="translate(704,507)" d="m0 0h19l12 3v2h3l3 9 3 15v6l-16 1h-24l-1-1h-9l-7 1-3-1-7 1-2-8-2-1 2-21 6-4 10-1z" fill="#3688DC"/>
    <path transform="translate(1173,692)" d="m0 0 6 1h19l11 3 2 4-6 4-3 1 1 2-28 8-56 13-28 3 1-2 20-4 17-4-1-2-9-1h-32l-4-1-1 2-9 2-8 3h-8l-2-1v-2l26-5 19-5h3v-2h2v-2l48-10z" fill="#03A3D2"/>
    <path transform="translate(213,175)" d="m0 0 3 1-1 5-12 7-3 5 3-1 5 1-2 3 2 3-1 5h-2l-1 8-4 5-2 2-1 3-14 10-13 10-11 10-5-1 3-10 2-4-2-7-4-5-4-2-9 2 4-6 15-11 20-13 18-11z" fill="#037D97"/>
    <path transform="translate(868,502)" d="m0 0 17 3h44l7 2 2 7-6 11-4 4h-2v2l-5 2-1-4-2-2-11-1-4 1h-20l-5-1-7-1-8-5h-14l-11 3-14 7-2-1 5-5 7-5 2 1 3-1 14-9 6-2v-2z" fill="#3688DC"/>
    <path transform="translate(508,76)" d="m0 0h8l-4 3-9 2-24 6-10 5-1 2h-2l-1 9 17-2 16-3 10-2h4v2l-39 9-21 5-28 8h-2v-2l-9-1-4-4 1-8 3-3 4-2v-4l23-5 28-7 36-7z" fill="#049BC0"/>
    <path transform="translate(948,57)" d="m0 0h17l14 1 1 3 12 2 9 2 11 3 8 6 4 4-1 2-3 1h-13l-39-3h-7l-5 1-13-2 1-2 3-1-11-1-1-2 4-3-2-5-10-4 2-1 16 3 6 2 9 1v-2l-8-1-5-2z" fill="#039BBE"/>
    <path transform="translate(563,502)" d="m0 0 16 1 23 2 4 4 1 2v23h-4l-2-7-3-5-9 1-7 1-7-1-4-2-26-2-3-1h-10l-9 11-4 1 2-4 4-6 4-2 8-11 5-3z" fill="#3688DC"/>
    <path transform="translate(1256,672)" d="m0 0 7 1-5 6-6 5-3 6-6 3h-3v2l2 1-35 10h-6l1-2 8-4-1-3-11-3h-22l-2-2 23-7 30-9 4 1 16-3z" fill="#0394A7"/>
    <path transform="translate(1056,487)" d="m0 0h8l8 6 8 8v2l-4-2-5-4-5 1-3 1-2 4-7 4-6 1h-16l-21 3-1 8 5 9-4-1-8-11-1-3 1-3v-7l2-3h2v-2l10-3 3-2 22-2z" fill="#3688DC"/>
    <path transform="translate(1173,692)" d="m0 0 6 1h19l11 3 2 4-6 4-3 1 1 2-28 8-26 6h-6l3-3 11-3 10-4-4-4-7-2h-15l-7 1h-10l-1-2 16-4 30-7z" fill="#039BBF"/>
    <path transform="translate(557,71)" d="m0 0h5l-4 2-23 6-8 3-18 5-3 1-1 6 14-1 20-4h8l-2 2-2-1v3l-31 5v-2l-23 5-22 3-3-3 1-4 1-3h2l1-3 10-5 16-4 10-2 4-1 29-5 11-2z" fill="#03A3D2"/>
    <path transform="translate(707,528)" d="m0 0 6 1h17l10 6 2 3v4l-10 1h-28l-1-1h-9l-7 1-3-1-7 1-1-7 1-3h2l1-3 2-1z" fill="#2D92E3"/>
    <path transform="translate(440,91)" d="m0 0h4v2h-3l-2 6h-2l1 7 2 3 9 1v3l-25 7h-2v-2l-9-1-4-4 1-8 3-3 4-2v-4z" fill="#0394A7"/>
    <path transform="translate(1275,502)" d="m0 0 4 1 12 13 7 8-2 2-9-7-5-3-7-1-13 8-6 1v2l-10 6-15 6-12 3-18 3h-8l-6-1v-1l25-3 15-4 16-7 13-8 15-13z" fill="#2A94E3"/>
    <path transform="translate(927,58)" d="m0 0 15 2 9 3 11 1 6 4 1 6-1 1h-14l-18-2-1-2 4-3-2-5-10-4z" fill="#03A3D2"/>
    <path transform="translate(961,77)" d="m0 0 21 1 25 2 23 4 30 5 6 2v1l-13-1-45-7-43-4-5-1z" fill="#0887A9"/>
    <path transform="translate(1275,502)" d="m0 0 4 1 12 13 7 8-2 2-9-7-5-3-7-1-13 8-6 1 1-2h3v-2l5-3 1-2h3v-2h2v-2-1l-2-1z" fill="#2B92E3"/>
    <path transform="translate(792,610)" d="m0 0m-8 1h8v2l-19 2-49 1h-39v-1l30-1 1-1z" fill="#0DAFEA"/>
    <path transform="translate(980,59)" d="m0 0h12l32 4 4 1-1 2h-26l-10-2-13-3z" fill="#05819F"/>
    <path transform="translate(494,612)" d="m0 0h24l1 2-14 1h-87v-1l62-1z" fill="#0FA8E8"/>
    <path transform="translate(1025,84)" d="m0 0 13 1 27 5 1 2-13-1-25-4-3-1z" fill="#0785A5"/>
    <path transform="translate(1224,536)" d="m0 0 1 2-1 2-23 4h-8l-6-1v-1l25-3z" fill="#2A96E3"/>
    <path transform="translate(539,89)" d="m0 0h8l-2 2-2-1v3l-19 3-5-1 1-2z" fill="#09A8DE"/>
    <path transform="translate(678,733)" d="m0 0 27 1 11 1v1l-9 1-27-1z" fill="#0A7ABA"/>
    <path transform="translate(1271,509)" d="m0 0 3 1-3 1v2h-2v2h-3l-2 4-4 1v2l-6 3-4-1 8-6 10-8z" fill="#12A7E7"/>
    <path transform="translate(1125,722)" d="m0 0m-3 1h3l-1 4-31 4-2-1 1-1 20-4z" fill="#04A4D4"/>
    <path transform="translate(961,77)" d="m0 0 21 1 12 1 1 2h-18l-17-2z" fill="#0684A3"/>
    <path transform="translate(1275,502)" d="m0 0 4 1 8 9-2 1-8-4-8 1z" fill="#3688DB"/>
    <path transform="translate(102,255)" d="m0 0h3v2l-2 1-2 4-5 4-2 4-3 3h-2l-1-3z" fill="#0F67BC"/>
    <path transform="translate(496,612)" d="m0 0h22l1 2-14 1h-14l3-2z" fill="#0DAFEA"/>
    <path transform="translate(76,401)" d="m0 0h1l1 26-3-1-2-9 2-6z" fill="#0E76B9"/>
    <path transform="translate(1082,588)" d="m0 0 10 4 11 5 6 3 1 2-5-1-22-10z" fill="#0EABE9"/>
    <path transform="translate(508,96)" d="m0 0h4v2l-21 5h-2l1-3 11-3z" fill="#05A0C7"/>
    <path transform="translate(1082,505)" d="m0 0 5 2 4 1 5 5 4 3v2l-5-1-13-11z" fill="#338DDD"/>
    <path transform="translate(508,76)" d="m0 0h8l-4 3-9 2h-6l2-3z" fill="#069EC5"/>
    <path transform="translate(1025,84)" d="m0 0 13 1 6 2v2l-16-2-3-1z" fill="#0882A4"/>
    <path transform="translate(799,537)" d="m0 0v3l-3 3-5 1-5-4z" fill="#2F90E0"/>
    <path transform="translate(123,529)" d="m0 0 4 1 6 6-1 3-5-3v-2h-2z" fill="#0855B1"/>
    <path transform="translate(1224,536)" d="m0 0 1 2-1 2-15 2 3-3z" fill="#279AE5"/>
    <path transform="translate(1155,716)" d="m0 0m-2 0 3 3-7 2h-6l3-3z" fill="#049EC5"/>
    <path transform="translate(1183,689)" d="m0 0h5l-3 3-9 2-2-2z" fill="#0585A5"/>
    <path transform="translate(1232,533)" d="m0 0 3 1-1 3-6 2-4-1 3-3z" fill="#2B95E2"/>
    <path transform="translate(102,497)" d="m0 0 5 5 2 6-4-2-4-7z" fill="#0A56B3"/>
    <path transform="translate(1143,719)" d="m0 0m-5 1 8 1v1l-13 3-3-1z" fill="#05A3CC"/>
    <path transform="translate(539,89)" d="m0 0h8l-2 2-2-1v2l-13 1 1-2z" fill="#03A3D2"/>
    <path transform="translate(97,262)" d="m0 0v3l-3 5-3 3h-2l-1-3z" fill="#055BB5"/>
    <path transform="translate(830,522)" d="m0 0 2 1-2 4-6 3-2-1 5-5z" fill="#FFFFFF"/>
    <path transform="translate(1276,503)" d="m0 0 4 1 2 4-9-1z" fill="#FFFFFF"/>
</svg>
